<mxfile host="app.diagrams.net" agent="Mozilla/5.0 (Windows NT 10.0; Win64; x64; rv:128.0) Gecko/20100101 Firefox/128.0" version="26.1.1">
  <diagram name="Page-1" id="68JS1MZGmcqmtEU8mFk1">
    <mxGraphModel dx="2924" dy="1134" grid="1" gridSize="10" guides="1" tooltips="1" connect="1" arrows="1" fold="1" page="1" pageScale="1" pageWidth="850" pageHeight="1100" math="0" shadow="0">
      <root>
        <mxCell id="0" />
        <mxCell id="1" parent="0" />
        <mxCell id="o_iGRdhiawpHMt626Xei-71" style="edgeStyle=orthogonalEdgeStyle;rounded=0;orthogonalLoop=1;jettySize=auto;html=1;exitX=0.25;exitY=0;exitDx=0;exitDy=0;entryX=0.317;entryY=1.033;entryDx=0;entryDy=0;entryPerimeter=0;endArrow=none;startFill=0;" edge="1" parent="1" source="o_iGRdhiawpHMt626Xei-60" target="o_iGRdhiawpHMt626Xei-67">
          <mxGeometry relative="1" as="geometry">
            <mxPoint x="88" y="470" as="targetPoint" />
          </mxGeometry>
        </mxCell>
        <mxCell id="o_iGRdhiawpHMt626Xei-60" value="Rate Limiter" style="rounded=0;whiteSpace=wrap;html=1;" vertex="1" parent="1">
          <mxGeometry x="40" y="635" width="190" height="60" as="geometry" />
        </mxCell>
        <mxCell id="o_iGRdhiawpHMt626Xei-1" value="User" style="rounded=0;whiteSpace=wrap;html=1;" vertex="1" parent="1">
          <mxGeometry x="-670" y="650" width="120" height="60" as="geometry" />
        </mxCell>
        <mxCell id="o_iGRdhiawpHMt626Xei-38" style="edgeStyle=orthogonalEdgeStyle;rounded=0;orthogonalLoop=1;jettySize=auto;html=1;exitX=0;exitY=0.75;exitDx=0;exitDy=0;entryX=1;entryY=0.75;entryDx=0;entryDy=0;" edge="1" parent="1" source="o_iGRdhiawpHMt626Xei-2" target="o_iGRdhiawpHMt626Xei-3">
          <mxGeometry relative="1" as="geometry" />
        </mxCell>
        <mxCell id="o_iGRdhiawpHMt626Xei-48" style="edgeStyle=orthogonalEdgeStyle;rounded=0;orthogonalLoop=1;jettySize=auto;html=1;entryX=0.5;entryY=1;entryDx=0;entryDy=0;" edge="1" parent="1" source="o_iGRdhiawpHMt626Xei-2" target="o_iGRdhiawpHMt626Xei-24">
          <mxGeometry relative="1" as="geometry">
            <mxPoint x="550" y="480" as="targetPoint" />
            <Array as="points">
              <mxPoint x="550" y="565" />
              <mxPoint x="551" y="565" />
            </Array>
          </mxGeometry>
        </mxCell>
        <mxCell id="o_iGRdhiawpHMt626Xei-2" value="Service" style="rounded=0;whiteSpace=wrap;html=1;" vertex="1" parent="1">
          <mxGeometry x="490" y="650" width="120" height="60" as="geometry" />
        </mxCell>
        <mxCell id="o_iGRdhiawpHMt626Xei-28" style="edgeStyle=orthogonalEdgeStyle;rounded=0;orthogonalLoop=1;jettySize=auto;html=1;exitX=1;exitY=0.25;exitDx=0;exitDy=0;entryX=0;entryY=0.25;entryDx=0;entryDy=0;" edge="1" parent="1" source="o_iGRdhiawpHMt626Xei-3" target="o_iGRdhiawpHMt626Xei-2">
          <mxGeometry relative="1" as="geometry" />
        </mxCell>
        <mxCell id="o_iGRdhiawpHMt626Xei-3" value="Rate Limiter" style="rounded=0;whiteSpace=wrap;html=1;" vertex="1" parent="1">
          <mxGeometry x="50" y="650" width="190" height="60" as="geometry" />
        </mxCell>
        <mxCell id="o_iGRdhiawpHMt626Xei-6" value="&lt;h1 style=&quot;margin-top: 0px;&quot;&gt;Functional Requirements&lt;br&gt;&lt;/h1&gt;&lt;p&gt;1.&amp;nbsp;The system MUST throttle users that exceed a certain limit set by server  &lt;/p&gt;&lt;p&gt;2. The system MUST return 400 status code if the user is being throttled&lt;/p&gt;&lt;div&gt;3. The system MUST allow different TPS rate for different APIs&lt;/div&gt;&lt;div&gt;&lt;br&gt;&lt;/div&gt;&lt;div&gt;4. The system MUST allow server to throttle based on accountId if logged in, else by IP address &lt;br&gt;&lt;/div&gt;" style="text;html=1;whiteSpace=wrap;overflow=hidden;rounded=0;" vertex="1" parent="1">
          <mxGeometry x="-550" y="170" width="430" height="170" as="geometry" />
        </mxCell>
        <mxCell id="o_iGRdhiawpHMt626Xei-7" value="&lt;h1 style=&quot;margin-top: 0px;&quot;&gt;Non-Functional Requirements&lt;br&gt;&lt;/h1&gt;&lt;p&gt;1.&amp;nbsp;The system MUST respond back in 200ms for throttled requests&lt;br&gt;&lt;/p&gt;&lt;p&gt;2. The system MUST be able to handle 100k requests per second&lt;br&gt;&lt;/p&gt;&lt;div&gt;3. The system MUST ensure 99.99% availability &lt;br&gt;&lt;/div&gt;" style="text;html=1;whiteSpace=wrap;overflow=hidden;rounded=0;" vertex="1" parent="1">
          <mxGeometry x="280" y="160" width="430" height="170" as="geometry" />
        </mxCell>
        <mxCell id="o_iGRdhiawpHMt626Xei-24" value="Rules Storage" style="shape=datastore;whiteSpace=wrap;html=1;" vertex="1" parent="1">
          <mxGeometry x="505" y="365" width="90" height="110" as="geometry" />
        </mxCell>
        <mxCell id="o_iGRdhiawpHMt626Xei-27" value="API Request" style="text;html=1;align=center;verticalAlign=middle;resizable=0;points=[];autosize=1;strokeColor=none;fillColor=none;" vertex="1" parent="1">
          <mxGeometry x="-515" y="650" width="90" height="30" as="geometry" />
        </mxCell>
        <mxCell id="o_iGRdhiawpHMt626Xei-31" value="Rules Update" style="text;html=1;align=center;verticalAlign=middle;resizable=0;points=[];autosize=1;strokeColor=none;fillColor=none;" vertex="1" parent="1">
          <mxGeometry x="460" y="550" width="100" height="30" as="geometry" />
        </mxCell>
        <mxCell id="o_iGRdhiawpHMt626Xei-32" value="Allow Request if not Throttled" style="text;html=1;align=center;verticalAlign=middle;resizable=0;points=[];autosize=1;strokeColor=none;fillColor=none;" vertex="1" parent="1">
          <mxGeometry x="280" y="640" width="180" height="30" as="geometry" />
        </mxCell>
        <mxCell id="o_iGRdhiawpHMt626Xei-36" value="&lt;div&gt;Throttle Request&lt;/div&gt;&lt;div&gt;or&lt;/div&gt;&lt;div&gt;Normal Response if not Throttled&lt;/div&gt;" style="text;html=1;align=center;verticalAlign=middle;resizable=0;points=[];autosize=1;strokeColor=none;fillColor=none;" vertex="1" parent="1">
          <mxGeometry x="-540" y="695" width="200" height="60" as="geometry" />
        </mxCell>
        <mxCell id="o_iGRdhiawpHMt626Xei-37" value="Checks if current user can make calls" style="text;html=1;align=center;verticalAlign=middle;resizable=0;points=[];autosize=1;strokeColor=none;fillColor=none;" vertex="1" parent="1">
          <mxGeometry x="60" y="740" width="220" height="30" as="geometry" />
        </mxCell>
        <mxCell id="o_iGRdhiawpHMt626Xei-39" value="Return Response" style="text;html=1;align=center;verticalAlign=middle;resizable=0;points=[];autosize=1;strokeColor=none;fillColor=none;" vertex="1" parent="1">
          <mxGeometry x="305" y="700" width="120" height="30" as="geometry" />
        </mxCell>
        <mxCell id="o_iGRdhiawpHMt626Xei-40" value="" style="image;sketch=0;aspect=fixed;html=1;points=[];align=center;fontSize=12;image=img/lib/mscae/Cache_Redis_Product.svg;" vertex="1" parent="1">
          <mxGeometry x="268.58" y="390" width="71.42" height="60" as="geometry" />
        </mxCell>
        <mxCell id="o_iGRdhiawpHMt626Xei-47" value="Cache Rules" style="text;html=1;align=center;verticalAlign=middle;resizable=0;points=[];autosize=1;strokeColor=none;fillColor=none;" vertex="1" parent="1">
          <mxGeometry x="380" y="390" width="90" height="30" as="geometry" />
        </mxCell>
        <mxCell id="o_iGRdhiawpHMt626Xei-62" style="edgeStyle=orthogonalEdgeStyle;rounded=0;orthogonalLoop=1;jettySize=auto;html=1;entryX=0;entryY=0.75;entryDx=0;entryDy=0;" edge="1" parent="1" source="o_iGRdhiawpHMt626Xei-54" target="o_iGRdhiawpHMt626Xei-60">
          <mxGeometry relative="1" as="geometry" />
        </mxCell>
        <mxCell id="o_iGRdhiawpHMt626Xei-54" value="" style="outlineConnect=0;dashed=0;verticalLabelPosition=bottom;verticalAlign=top;align=center;html=1;shape=mxgraph.aws3.classic_load_balancer;fillColor=#F58536;gradientColor=none;" vertex="1" parent="1">
          <mxGeometry x="-300" y="644" width="69" height="72" as="geometry" />
        </mxCell>
        <mxCell id="o_iGRdhiawpHMt626Xei-56" style="edgeStyle=orthogonalEdgeStyle;rounded=0;orthogonalLoop=1;jettySize=auto;html=1;exitX=1;exitY=0.5;exitDx=0;exitDy=0;entryX=0;entryY=0.5;entryDx=0;entryDy=0;entryPerimeter=0;endArrow=none;startFill=0;" edge="1" parent="1" source="o_iGRdhiawpHMt626Xei-1" target="o_iGRdhiawpHMt626Xei-54">
          <mxGeometry relative="1" as="geometry" />
        </mxCell>
        <mxCell id="o_iGRdhiawpHMt626Xei-61" value="Rate Limiter" style="rounded=0;whiteSpace=wrap;html=1;" vertex="1" parent="1">
          <mxGeometry x="60" y="660" width="190" height="60" as="geometry" />
        </mxCell>
        <mxCell id="o_iGRdhiawpHMt626Xei-63" value="Load Balancer" style="text;html=1;align=center;verticalAlign=middle;resizable=0;points=[];autosize=1;strokeColor=none;fillColor=none;" vertex="1" parent="1">
          <mxGeometry x="-290" y="716" width="100" height="30" as="geometry" />
        </mxCell>
        <mxCell id="o_iGRdhiawpHMt626Xei-65" value="Route Request to Correct Node" style="text;html=1;align=center;verticalAlign=middle;resizable=0;points=[];autosize=1;strokeColor=none;fillColor=none;" vertex="1" parent="1">
          <mxGeometry x="-190" y="650" width="190" height="30" as="geometry" />
        </mxCell>
        <mxCell id="o_iGRdhiawpHMt626Xei-66" value="Cache" style="text;html=1;align=center;verticalAlign=middle;resizable=0;points=[];autosize=1;strokeColor=none;fillColor=none;" vertex="1" parent="1">
          <mxGeometry x="275" y="368" width="60" height="30" as="geometry" />
        </mxCell>
        <mxCell id="o_iGRdhiawpHMt626Xei-68" style="edgeStyle=orthogonalEdgeStyle;rounded=0;orthogonalLoop=1;jettySize=auto;html=1;" edge="1" parent="1" source="o_iGRdhiawpHMt626Xei-67">
          <mxGeometry relative="1" as="geometry">
            <mxPoint x="260" y="420" as="targetPoint" />
          </mxGeometry>
        </mxCell>
        <mxCell id="o_iGRdhiawpHMt626Xei-67" value="TPS Counter" style="rounded=0;whiteSpace=wrap;html=1;" vertex="1" parent="1">
          <mxGeometry x="50" y="390" width="120" height="60" as="geometry" />
        </mxCell>
        <mxCell id="o_iGRdhiawpHMt626Xei-69" value="Get Rules" style="text;html=1;align=center;verticalAlign=middle;resizable=0;points=[];autosize=1;strokeColor=none;fillColor=none;" vertex="1" parent="1">
          <mxGeometry x="160" y="398" width="80" height="30" as="geometry" />
        </mxCell>
        <mxCell id="o_iGRdhiawpHMt626Xei-70" style="edgeStyle=orthogonalEdgeStyle;rounded=0;orthogonalLoop=1;jettySize=auto;html=1;exitX=0;exitY=0.5;exitDx=0;exitDy=0;entryX=1;entryY=0.5;entryDx=0;entryDy=0;entryPerimeter=0;" edge="1" parent="1" source="o_iGRdhiawpHMt626Xei-24" target="o_iGRdhiawpHMt626Xei-40">
          <mxGeometry relative="1" as="geometry" />
        </mxCell>
        <mxCell id="o_iGRdhiawpHMt626Xei-72" value="Get counter for current user" style="text;html=1;align=center;verticalAlign=middle;resizable=0;points=[];autosize=1;strokeColor=none;fillColor=none;" vertex="1" parent="1">
          <mxGeometry x="85" y="535" width="170" height="30" as="geometry" />
        </mxCell>
        <mxCell id="o_iGRdhiawpHMt626Xei-74" value="&lt;h1 style=&quot;margin-top: 0px;&quot;&gt;Deep Dive&lt;br&gt;&lt;/h1&gt;&lt;p&gt;1. Using cache to satisfy 200ms response time&lt;/p&gt;&lt;p&gt;2. Using Load Balancer to distribute requests to multiple Rate Limiter services nodes&lt;/p&gt;&lt;p&gt;3. To ensure availability, using multiple nodes with failure handover using LB&lt;/p&gt;&lt;p&gt;4. Using eventual consistency&lt;/p&gt;&lt;p&gt;5. Redis will use read through cache model&lt;/p&gt;&lt;p&gt;6. All Rate Limiter service nodes will ask single counter node to keep counter consistent&lt;/p&gt;&lt;p&gt;7. Using JSON based rules and token bucket algorithm&amp;nbsp; &lt;br&gt;&lt;/p&gt;" style="text;html=1;whiteSpace=wrap;overflow=hidden;rounded=0;" vertex="1" parent="1">
          <mxGeometry x="-325" y="830" width="460" height="240" as="geometry" />
        </mxCell>
      </root>
    </mxGraphModel>
  </diagram>
</mxfile>
